{"title":"Alejandra Guzman - Dia De Suerte (Premios Lo Nuestro 2012) (h264","uid":7065236,"size":128707966,"categoryP":"video","categoryS":"music_videos","magnet":"?xt=urn:btih:1ef74dbb60b950bb6bf454bc7f0c9f883dc1ad41&amp;dn=Alejandra+Guzman+-+Dia+De+Suerte+%28Premios+Lo+Nuestro+2012%29+%28h264&amp;tr=udp%3A%2F%2Ftracker.openbittorrent.com%3A80&amp;tr=udp%3A%2F%2Fopen.demonii.com%3A1337&amp;tr=udp%3A%2F%2Ftracker.coppersurfer.tk%3A6969&amp;tr=udp%3A%2F%2Fexodus.desync.com%3A6969","seeders":4,"leechers":0,"uploader":"MusicVideos-HQ","files":1,"time":1330490954,"description":"General\n\n\nFormat : MPEG-4\nFormat profile : Base Media\nCodec ID : isom\nFile size : 123 MiB\nDuration : 4mn 30s\nOverall bit rate : 3 801 Kbps\nEncoded date : UTC 2012-02-28 05:27:53\nTagged date : UTC 2012-02-28 05:27:53\n\nVideo\nID : 1\nFormat : AVC\nFormat/Info : Advanced Video Codec\nFormat profile : &lt;a class=&quot;__cf_email__&quot; href=&quot;/cdn-cgi/l/email-protection&quot; data-cfemail=&quot;246c4d434c6468170a14&quot;&gt;[email&amp;#160;protected]&lt;/a&gt;&lt;script cf-hash='f9e31' type=&quot;text/javascript&quot;&gt;\n/* &lt;![CDATA[ */!function(){try{var t=&quot;currentScript&quot;in document?document.currentScript:function(){for(var t=document.getElementsByTagName(&quot;script&quot;),e=t.length;e--;)if(t[e].getAttribute(&quot;cf-hash&quot;))return t[e]}();if(t&amp;&amp;t.previousSibling){var e,r,n,i,c=t.previousSibling,a=c.getAttribute(&quot;data-cfemail&quot;);if(a){for(e=&quot;&quot;,r=parseInt(a.substr(0,2),16),n=2;a.length-n;n+=2)i=parseInt(a.substr(n,2),16)^r,e+=String.fromCharCode(i);e=document.createTextNode(e),c.parentNode.replaceChild(e,c)}}}catch(u){}}();/* ]]&gt; */&lt;/script&gt;\nFormat settings, CABAC : Yes\nFormat settings, ReFrames : 2 frames\nCodec ID : avc1\nCodec ID/Info : Advanced Video Coding\nDuration : 4mn 30s\nBit rate mode : Variable\nBit rate : 3 853 Kbps\nMaximum bit rate : 11.2 Mbps\nWidth : 640 pixels\nHeight : 480 pixels\nDisplay aspect ratio : 4:3\nFrame rate mode : Constant\nFrame rate : 29.970 fps\nColor space : YUV\nChroma subsampling : 4:2:0\nBit depth : 8 bits\nScan type : Progressive\nBits/(Pixel*Frame) : 0.418\nStream size : 121 MiB (98%)\n\n\nAudio\nID : 2\nFormat : AAC\nFormat/Info : Advanced Audio Codec\nFormat profile : LC\nCodec ID : 40\nDuration : 4mn 30s\nBit rate mode : Variable\nBit rate : 59.1 Kbps\nMaximum bit rate : 66.5 Kbps\nChannel(s) : 2 channels\nChannel positions : Front: L R\nSampling rate : 44.1 KHz\nCompression mode : Lossy\nStream size : 1.91 MiB (2%)\n","torrent":{"xt":"urn:btih:1ef74dbb60b950bb6bf454bc7f0c9f883dc1ad41","amp;dn":"Alejandra+Guzman+-+Dia+De+Suerte+%28Premios+Lo+Nuestro+2012%29+%28h264","amp;tr":["udp%3A%2F%2Ftracker.openbittorrent.com%3A80","udp%3A%2F%2Fopen.demonii.com%3A1337","udp%3A%2F%2Ftracker.coppersurfer.tk%3A6969","udp%3A%2F%2Fexodus.desync.com%3A6969"],"infoHash":"1ef74dbb60b950bb6bf454bc7f0c9f883dc1ad41","infoHashBuffer":{"type":"Buffer","data":[30,247,77,187,96,185,80,187,107,244,84,188,127,12,159,136,61,193,173,65]},"announce":[],"urlList":[]}}